<svg xmlns="http://www.w3.org/2000/svg" viewBox="1344 754 61.161 67.276">
  <defs>
    <style>
      .cls-1 {
        fill: #030104;
      }
    </style>
  </defs>
  <g id="icon" transform="translate(1342.833 754)">
    <path id="Tracé_1" data-name="Tracé 1" class="cls-1" d="M55.944.256l-29.1,8.9a9.135,9.135,0,0,0-6.383,8.209v30.7s-2.109-1.422-6.8-.757c-6.9.98-12.489,6.273-12.489,11.826s5.592,8.955,12.489,7.976S25.616,61,25.616,55.448V29.239c0-2.462,2.96-3.518,2.96-3.518L54.3,17.657s2.847-.956,2.847,1.679V40.387s-2.622-1.509-7.318-.938c-6.9.836-12.489,6.019-12.489,11.569s5.592,9.071,12.489,8.232,12.494-6.017,12.494-11.572V4.819C62.328,1.294,59.467-.749,55.944.256Z"/>
  </g>
</svg>
